<svg xmlns="http://www.w3.org/2000/svg" width="3786" height="840" style="shape-rendering:geometricPrecision;text-rendering:geometricPrecision;image-rendering:optimizeQuality;fill-rule:evenodd;clip-rule:evenodd"><path fill="#fefffe" d="M563.5 44.5q53.002-.25 106 .5a574 574 0 0 1 49 5l58 1a159 159 0 0 1 16.5 2.5 164 164 0 0 1 37-3q42.756 2.63 85.5 5.5 33.5 1 67 0l16-2 140-1a662 662 0 0 1 17-2c57.39-.22 114.73-1.22 172-3l40 5 83 1 8 2c26.2-1.177 51.86 1.823 77 9 20.74.267 41.07 3.267 61 9q36.12-.28 72 3.5c7.35-.669 14.68-1.502 22-2.5l305-1 16-2 49-1a662 662 0 0 0 17-2c46.33-.667 92.67-.667 139 0a2253 2253 0 0 0 164 9 901 901 0 0 1 21 2.5 593 593 0 0 1 70-3.5l16-2q45-1 90 0l16 2 83 1 16 2c46.64 1.995 93.3 3.328 140 4q33.075 5.19 66-1a245.5 245.5 0 0 1 36.5.5c9.79-1.34 19.62-2.174 29.5-2.5a782 782 0 0 1 32-5c35.62-2.622 71.29-4.289 107-5a631 631 0 0 1 115-5 592 592 0 0 1 48 7 1093 1093 0 0 0 157-3c33.03-1.454 65.7 1.38 98 8.5a622 622 0 0 1 105-9.5c29.02-.892 53.19 9.274 72.5 30.5q11.145 18.935 12 41-.015 49.5 0 99a387.5 387.5 0 0 0 5 57c.71 27.345.37 54.678-1 82-6 50.715-12.17 101.382-18.5 152a904 904 0 0 1 7.5 136 132 132 0 0 1-8 21 699 699 0 0 1-2 46 37.3 37.3 0 0 1-2.5 8 446 446 0 0 1-49 5.5c-93.45-.367-186.79-.367-280 0a1567 1567 0 0 1-71 6.5q-28.62-1.43-57 3c-28.74-2.006-57.07.494-85 7.5q-28.5.546-57 1.5a3146 3146 0 0 0-122.5 0 464 464 0 0 0-31.5-6.5l-99-1a8634 8634 0 0 1-65-8q-99.045-1.238-198 1a1741 1741 0 0 0-57-5 315 315 0 0 1-33-5 22470 22470 0 0 0-381-16.5c-39.65 1.732-79.32 3.232-119 4.5a5101 5101 0 0 1-428 18 1475 1475 0 0 1-99 3l-16 2c-28.85.154-57.69.321-86.5.5-32.8-2.06-65.63-3.06-98.5-3a17394 17394 0 0 1-128 3c-38.35-.376-76.68-1.376-115-3a6948 6948 0 0 0-94.5 3 572 572 0 0 1-61.5-2.5q-76.506-4.25-152 8a613 613 0 0 0-74 4 888 888 0 0 1-56 15 260 260 0 0 1-33 3 270 270 0 0 1-32 5q-103.053 1.028-206-1a1505 1505 0 0 1-81-9l-16-4a568 568 0 0 1-58-7q-44.94-11.44-50.5-57.5a586 586 0 0 1-11-81 569 569 0 0 1-12-36 1604 1604 0 0 1-4-96q-.446-99.05-.5-198a2245 2245 0 0 0 11.5-127 495 495 0 0 1 10-40q-.5-40.011 38.5-49.5a331.8 331.8 0 0 1 77-12 6874 6874 0 0 1 148-2l66-8 41-1a149 149 0 0 1 24-4 2847 2847 0 0 0 74-7.5" style="opacity:1"/><path d="M743.5 153.5a214 214 0 0 1 33 1.5q6.361 5.812-1.5 9.5a217 217 0 0 0-35.5-.5 4222 4222 0 0 0-64 10 15512 15512 0 0 0-181 0 7068 7068 0 0 0-56 3q-89.999 1.41-180 2.5a7100 7100 0 0 0-49-2.5 1796 1796 0 0 0-15.5 73.5 258 258 0 0 0-2 25 2416 2416 0 0 0 3.5 171 7800 7800 0 0 0-2.5 167 1729 1729 0 0 0-2 64 387 387 0 0 1 29.5-6.5 720 720 0 0 1 83.5-6.5 12434 12434 0 0 1 251.5 11q52.24-2.12 104.5-4a447 447 0 0 0 48.5.5q25.526-3.25 51-6.5a39.1 39.1 0 0 0 4.5-13 430 430 0 0 0 8.5-85 6258 6258 0 0 1-4.5-146 16599 16599 0 0 0-8.5-154.5 1787 1787 0 0 0 4.5-98.5q4.5-8 9 0a361 361 0 0 1 0 38 2568 2568 0 0 0-3.5 61l8.5 163a3405 3405 0 0 0 4.5 137q-.433 49.277-12.5 97-2.094 6.438-7.5 10.5a4291 4291 0 0 0-58 7 448 448 0 0 1-44-.5 7566 7566 0 0 0-105.5 4 9476 9476 0 0 0-251.5-11q-21.025.09-42 1.5a449.6 449.6 0 0 0-74.5 11.5q-7.316-2.089-6.5-10 1.405-28.989 2.5-58a9018 9018 0 0 1 2.5-172.5 2625 2625 0 0 1-3.5-163.5 211.4 211.4 0 0 1 5-46 5128 5128 0 0 1 13-62q4.917-11.084 17-8 20.744 1.536 41.5 3a983 983 0 0 1 106-1 7710 7710 0 0 1 191-6q51.52-.028 103 2a178 178 0 0 0 21-1.5q32.25-5.023 64-10.5M3620.5 156.5q4.95-.3 7.5 4c8.77-1.651 17.6-2.151 26.5-1.5q5.97 3.926 0 8a298 298 0 0 1-28 2.5c2.45 40.65 4.79 81.316 7 122q-.6 34.103-4.5 68c-.68 32.004-.51 64.004.5 96a3139 3139 0 0 1-5 92.5c2.5 32.845 5.17 65.678 8 98.5q.93 12.826-12 14.5a610.4 610.4 0 0 1-128 6 812 812 0 0 1-43-8 203.6 203.6 0 0 0-36-2.5q-100.545 3.815-201 9.5-62.265.759-124.5 2.5c-7.87.061-13.21-3.606-16-11q-6.21-16.93-6-35c-.66-18.007-.5-36.007.5-54a21653 21653 0 0 0-10-178.5c1.13-24.818 1.3-49.652.5-74.5q-4.5-71.289-10.5-142.5c.71-7.706 5.04-11.706 13-12 5.81-.794 11.64-1.294 17.5-1.5a4425 4425 0 0 1 168.5 12.5q85.5 1 171 0a3789 3789 0 0 1 157-5 579 579 0 0 0 42-5c2.24-1.31 3.91-3.143 5-5.5M2807.5 161.5q33.075-.464 66 2.5a15.3 15.3 0 0 0 6 3q2.265 2.027 3 5a171.7 171.7 0 0 0-.5 31.5c5.59 49.347 7.75 98.847 6.5 148.5a8067 8067 0 0 1-4 242.5c.06 19.007.4 38.007 1 57 1.47 10.034-2.86 15.534-13 16.5a717.2 717.2 0 0 1-138-11 1324 1324 0 0 0-156-5.5q-67.515.026-135 1.5a7714 7714 0 0 1-104 6 452 452 0 0 1-29 6.5c-.81 5.523-3.48 6.856-8 4q-2.265-58.338 7.5-116a774 774 0 0 0 2.5-107 1647 1647 0 0 0-.5-159q-3.12-34.195-4.5-68.5a417 417 0 0 1 3.5-48.5c3.81-3.003 6.64-2.17 8.5 2.5q40.5-1.39 81 1c34.33.667 68.67.667 103 0 42.88-2.958 85.71-6.458 128.5-10.5q88.05 4.51 175.5-2M1518.5 163.5c4.95-.541 9.62.292 14 2.5a18.2 18.2 0 0 1 2 3.5 81.3 81.3 0 0 0-4.5 23c-.33 16.333-.67 32.667-1 49a656 656 0 0 0-6 57 5555 5555 0 0 0-1.5 262 1978 1978 0 0 1-2.5 71c-1.05 13.937-4.39 27.27-10 40-1.83 1.833-3.67 3.667-5.5 5.5a1272 1272 0 0 1-60.5 3.5c-54.16-2.749-108.33-5.416-162.5-8a30497 30497 0 0 0-211 8.5 996 996 0 0 0-107 4.5q-6.132 1.11-9.5-4a237.6 237.6 0 0 1-1-43 1135 1135 0 0 0 4-66 528.7 528.7 0 0 0 4-96 3540 3540 0 0 0-6-107 12437 12437 0 0 0-12-163q-.68-14.308-5.5-27.5 1.848-8.84 11-9c35.044-.692 70.04-2.192 105-4.5 32.65 1.52 65.32 2.686 98 3.5a4719 4719 0 0 0 174 9.5c42.35-2.215 84.68-4.715 127-7.5a3142 3142 0 0 0 67-7.5" style="opacity:1"/><path fill="#fefffe" d="M3063.5 169.5a584 584 0 0 1 50 1.5c38.4 2.591 76.73 5.924 115 10a4434 4434 0 0 0 181 1 3859 3859 0 0 1 158-5 648 648 0 0 0 49-5.5c.94 30.095 3.1 60.095 6.5 90a639.6 639.6 0 0 1-4 104 14695 14695 0 0 0 0 115 4288 4288 0 0 0-4.5 68q4.455 49.761 9 99.5c-.09 1.107-.42 2.107-1 3-46.44 7.769-93.11 9.436-140 5a320.4 320.4 0 0 0-70.5-9.5c-71.66 3.665-143.32 7.332-215 11a723 723 0 0 1-18.5-1q-42 1.062-84 2a81 81 0 0 1-12.5-1q-5.475-11.877-6-25c-.33-31.667-.67-63.333-1-95a26360 26360 0 0 1-8.5-148.5 868 868 0 0 0 .5-67.5 22448 22448 0 0 0-10.5-151c2.56.302 4.89-.032 7-1M2816.5 170.5c18.69.518 37.36 1.518 56 3 .14 5.197-.2 10.363-1 15.5 1.86 26.521 4.03 53.021 6.5 79.5a7528 7528 0 0 1-3.5 323c-.12 20.865.55 41.698 2 62.5-.06 1.436-.39 2.769-1 4a681.3 681.3 0 0 1-145-11 1261 1261 0 0 0-151.5-5.5c-42.84.032-85.67.532-128.5 1.5a3352 3352 0 0 1-108 6 344 344 0 0 1-31 6.5 573.5 573.5 0 0 1 8.5-105 811 811 0 0 0 2.5-104 1715 1715 0 0 0-4.5-205 664 664 0 0 1 .5-58 539.5 539.5 0 0 1 92 .5 1388 1388 0 0 0 205-10q42.03-.924 84 1.5a9483 9483 0 0 0 85-2.5 509 509 0 0 0 32-2.5M1514.5 173.5h9c-.99 4.289-1.82 8.622-2.5 13a1222 1222 0 0 0-2 59 732 732 0 0 0-6 58 5360 5360 0 0 0-1.5 258 1946 1946 0 0 1-1.5 63c-.44 15.158-3.61 29.658-9.5 43.5a2745 2745 0 0 1-64 3.5c-14.33-1.144-28.67-2.311-43-3.5a8807 8807 0 0 0-112-5.5c-68.33 2.855-136.67 5.689-205 8.5l-60 1a466 466 0 0 0-54.5 4.5 529 529 0 0 1 0-46 1646 1646 0 0 1 8-101 529 529 0 0 0 0-46 8147 8147 0 0 0-11-180 9254 9254 0 0 1-7-92 263 263 0 0 0-4.5-32q21.9-2.493 43.5 1 42.45-6.887 85.5-4.5 123.03 5.552 246 12.5 61.515-3.608 123-7.5 34.755-3.452 69-7.5" style="opacity:1"/><path d="M2185.5 237.5c21.28 15.502 43.94 29.335 68 41.5q8.865 8.694-3 13c-24.3 4.99-47.47 13.157-69.5 24.5q-7.74-3.181-1.5-8.5a246 246 0 0 1 49-20 562.6 562.6 0 0 1-83-9q-26.28-.696-52.5-2.5a2124 2124 0 0 1-121.5 1.5 321 321 0 0 0-25-3 1005 1005 0 0 1-80-3.5c-20.66.621-41.33 1.121-62 1.5a698 698 0 0 1-74 9c-49.19.636-98.35 1.803-147.5 3.5q-5.745.266-7.5-5c.43-2.266 1.76-3.766 4-4.5 51.32-1.608 102.66-2.942 154-4a703 703 0 0 0 76-9c18.68-.262 37.34-.762 56-1.5q67.59 2.636 135 8 48.015-1.543 96-3a605 605 0 0 0 54 3.5 806 806 0 0 0 51 7c9.67.667 19.33.667 29 0-12.67-7.667-25.33-15.333-38-23-4.11-3.439-7.45-7.439-10-12a31.4 31.4 0 0 1 3-4.5M867.5 241.5a1401 1401 0 0 1 44 23.5q11.705 7.979 3.5 19.5-16.07 17.99-36 31-4.547-1.509-4-6l25.5-21.5a55.5 55.5 0 0 0 9-12.5 21.6 21.6 0 0 0-7-5.5 984 984 0 0 0-37-20q-4.329-5.439 2-8.5M2987.5 252.5a200 200 0 0 1 38 18.5c3.33 2.489 5.67 5.656 7 9.5-1.53 6.058-4.36 11.391-8.5 16a267 267 0 0 1-23.5 24c-3.65-1.039-4.82-3.372-3.5-7a371 371 0 0 0 21.5-24.5c-29.64 2.526-58.97.192-88-7-3.08-1.711-4.25-4.211-3.5-7.5.8-1.304 1.97-1.971 3.5-2q44.385 11.198 90 6.5a366 366 0 0 0-32-17c-4.8-2.847-5.13-6.014-1-9.5" style="opacity:1"/><path d="M871.5 272.5q12.107-.544 24 1.5 5.964 3.926 0 8a945 945 0 0 0-81 3.5q-8.577.938-6-7a12.4 12.4 0 0 1 4-2.5 1251 1251 0 0 1 59-3.5M604.5 318.5q6.779.022 7.5 7a2079 2079 0 0 0 8.5 97 251 251 0 0 0 40-7q10.14 5.421-1 9.5a179.4 179.4 0 0 1-37 6.5 163.5 163.5 0 0 0 8 37.5q-1.44 7.477-8 4a390 390 0 0 0-24-23 133.4 133.4 0 0 0-21.5-11.5q-3.436-6.138 3.5-8.5a160 160 0 0 1 29-6q1.617-1.011 2-3a1083 1083 0 0 1-9-95.5q-.272-3.995 2-7M2472.5 326.5c33.39 1.625 58.56 16.625 75.5 45 3.15 8.424 2.82 16.757-1 25-7.89 17.56-20.73 30.06-38.5 37.5a597 597 0 0 0-23 7 48 48 0 0 1-18 1q-5.97-4.074 0-8a148.2 148.2 0 0 0 44-11q21.96-10.948 28.5-34.5 1.875-10.072-3-19c-18.13-24.313-42.3-34.813-72.5-31.5a26.1 26.1 0 0 0-7.5 4.5q-9.27 13.773-7.5 30.5c.3 13.578 1.47 27.078 3.5 40.5a513 513 0 0 1 13.5 59.5c-2.19 6.619-5.36 7.119-9.5 1.5a820 820 0 0 1-19-93c-.94-10.825-1.77-21.659-2.5-32.5-.8-4.568.87-7.734 5-9.5q3.045 1.79 4.5 5c6.19-10.671 15.36-16.671 27.5-18M3193.5 328.5c13.53-.104 25.36 4.229 35.5 13 3.6 4.374 2.77 7.708-2.5 10-9.85-11.008-22.19-15.174-37-12.5-22.43 5.923-29.27 19.756-20.5 41.5a159.4 159.4 0 0 0 23.5 28.5 539 539 0 0 1 55.5 47.5c11.56 15.024 10.39 29.191-3.5 42.5-6.4 5.25-13.73 8.584-22 10-21.52 4.935-41.85 1.935-61-9q-6-4 0-8 3.075-.487 6 1c16.77 8.511 34.43 10.845 53 7q26.625-3.087 25.5-29.5a59 59 0 0 0-5-9 934 934 0 0 0-55.5-47.5c-10.89-9.968-19.73-21.468-26.5-34.5-6.73-19.135-1.57-33.969 15.5-44.5 6.22-2.904 12.55-5.071 19-6.5M2204.5 329.5c3.14.299 5.31 1.966 6.5 5a778 778 0 0 0 11 112 342 342 0 0 0 7.5 28.5c-3.73 7.124-7.56 6.958-11.5-.5-.39-1.679-.23-3.345.5-5a310 310 0 0 1-7-26.5c-6.84-.961-13.5-.295-20 2-3.75 2.081-6.42 5.081-8 9q9.21-1.523 6 7.5a4.47 4.47 0 0 0 2 1.5 206 206 0 0 0 20 3q6 4 0 8c-9.59 1.145-18.76-.355-27.5-4.5-10.79 10.373-23.62 14.54-38.5 12.5-8.03-1.753-13.86-6.253-17.5-13.5-3.79 6.687-6.95 6.52-9.5-.5.17-.833.33-1.667.5-2.5a34.6 34.6 0 0 0 6.5-7.5c-.45-7.005 1.38-13.505 5.5-19.5 5.63-6.957 12.46-12.457 20.5-16.5 10.55-1.792 14.38 2.375 11.5 12.5-6.54 9.545-14.71 17.378-24.5 23.5q-5.61 5.256 0 11 18.795 9.822 36-3c2.48-1.938 2.65-4.105.5-6.5-.8-8.575 2.37-15.408 9.5-20.5 8.01-5.167 16.68-7 26-5.5a763 763 0 0 1-9-89c-1.87-1.04-3.21-2.54-4-4.5 1.4-4.211 3.73-7.711 7-10.5M1083.5 331.5q35.175-1.206 66 15.5c9.42 6.083 17.59 13.583 24.5 22.5 13.46 28.665 7.29 52.165-18.5 70.5a81.3 81.3 0 0 1-16 6 855 855 0 0 1-51 5.5c.97 14.03 2.3 28.03 4 42-2.96 7.975-6.13 7.975-9.5 0a3054 3054 0 0 1-4-37c-.12-3.432-1.28-6.432-3.5-9a16.2 16.2 0 0 0 2-5 1071 1071 0 0 1-10.5-55 623 623 0 0 1-2-41c-2.69 2.945-5.85 3.945-9.5 3a6.22 6.22 0 0 1-2-3.5c2.44-4.438 6.11-7.438 11-9 6.34-2.289 12.67-4.123 19-5.5M1835.5 331.5c14.55-.29 23.38 6.71 26.5 21 1.25 6.52.09 12.52-3.5 18-3.69 1.743-6.36.743-8-3q5.955-11.918-1.5-23-3.855-3.346-9-4-15.48 5.503-18 22a174.8 174.8 0 0 0 1.5 36c5.78-2.29 10.11-.79 13 4.5q-.9 2.407-3 4c-2.65.497-5.31.664-8 .5a505 505 0 0 0 12.5 38c1.42 3.93.25 6.597-3.5 8q-3.36-.798-4.5-4a959 959 0 0 0-12-33 30.7 30.7 0 0 1-1.5-9q-8.775-.004-16.5-4c-2.31-3.571-1.48-6.238 2.5-8q5.865 2.77 12 1a96 96 0 0 1-2-22c-1.99-19.706 5.68-34.04 23-43M2081.5 332.5q7.545.291 7.5 8a1082 1082 0 0 0 7.5 87q4.62-.371 9-2c5.53 1.762 6.2 4.595 2 8.5a49 49 0 0 0-9 3.5 401 401 0 0 1 5 27.5c-2.45 6.335-5.62 6.835-9.5 1.5q-1.485-13.154-4.5-26l-1.5-1c-7.74 2.68-15.57 3.18-23.5 1.5-3.57-2.178-3.9-4.844-1-8 7.38-.253 14.71-.919 22-2 1.02-.519 1.68-1.353 2-2.5a673 673 0 0 1-7.5-94q1.08-.816 1.5-2" style="opacity:1"/><path fill="#fefffe" d="M1089.5 340.5c29.31-.63 54.14 9.37 74.5 30 8.41 13.963 9.74 28.63 4 44-6.44 12.477-16.6 19.977-30.5 22.5a13576 13576 0 0 0-50 5.5q-14.52-48.854-12-99.5a613 613 0 0 0 14-2.5" style="opacity:1"/><path d="M383.5 342.5q5.178-.078 6.5 5a304 304 0 0 1 3 23 10005 10005 0 0 0 5 72 346 346 0 0 1 4 30q-6.672 6.446-9-3a399 399 0 0 1-5-32 1076 1076 0 0 0-7.5-90 11.95 11.95 0 0 1 3-5M1664.5 343.5c6.34-.166 12.68 0 19 .5 36.79.785 55.62 19.619 56.5 56.5 3.61 22.162-2.22 41.329-17.5 57.5q-15.015 10.012-33 11.5c-23.12-2.639-41.95-12.972-56.5-31-12.18-19.386-14.85-40.052-8-62 8.07-17.262 21.24-28.262 39.5-33M1761.5 343.5q5.475.477 6 6c-13.71 26.103-15.54 53.103-5.5 81a61.3 61.3 0 0 0 8.5 16q8.73 3.667 13.5-5 2.04-10.875-7.5-16.5a55.6 55.6 0 0 0-13-4q-6-4 0-8c14.01.093 23.84 6.593 29.5 19.5 2.12 8.955-.71 16.122-8.5 21.5-10.26 5.805-18.42 3.638-24.5-6.5-16.03-30.277-17.7-61.277-5-93 2.08-3.782 4.25-7.448 6.5-11M316.5 345.5q14.903-1.206 29 3.5 7.288 2.256 7.5 9.5a15 15 0 0 1-3.5 3q-35.352-17.982-61.5 12-16.734 21.7-16 49 3.544 22.539 23.5 33.5 36.54 18.444 75 4a52.2 52.2 0 0 0 10-7q7.152-3.34 7.5 4.5-16.86 16.297-40.5 17.5-46.47 5.855-76.5-29.5-16.843-30.406 0-61 14.402-29.68 45.5-39" style="opacity:1"/><path fill="#fefffe" d="M1667.5 352.5a4.94 4.94 0 0 1 3 .5c-5.09 2.144-6.42 5.477-4 10l2.5.5a99 99 0 0 1 17-8c3.35.52 5.18 2.52 5.5 6 2.67 2.667 5.33 2.667 8 0q1.905-2.806 0-5.5c14 1.435 23.16 8.935 27.5 22.5a266 266 0 0 1 4.5 36c-.26 13.353-4.6 25.187-13 35.5-20.74 13.522-41.41 13.189-62-1-17.41-11.346-26.08-27.513-26-48.5-.22-26.074 12.12-42.074 37-48" style="opacity:1"/><path d="M417.5 387.5q6.014-1.221 8 4.5a6.2 6.2 0 0 1-2 3.5 128 128 0 0 1-8.5 3q-6.903-2.449-2.5-8a31.6 31.6 0 0 1 5-3M1862.5 406.5c2.49-.171 4.33.829 5.5 3-.73 7.952.6 15.619 4 23q4.11 6.036 10.5 3.5 4.845-4.717 9-10 6.87-.686 10.5 5.5a370 370 0 0 1 12 23c1.42 3.93.25 6.597-3.5 8a18.2 18.2 0 0 1-3.5-2 161.3 161.3 0 0 0-12.5-24q-4.725 3.975-9 8.5c-4.86 2.21-9.52 1.877-14-1-9.48-8.763-13.64-19.596-12.5-32.5 1-1.823 2.16-3.49 3.5-5M1987.5 410.5c8.34 1.165 12.51 5.832 12.5 14-2.45 3.487-5.28 3.82-8.5 1a9.13 9.13 0 0 1-1-5q-15.855 1.12-13.5 17c4.07 10.385 11.73 15.719 23 16q5.505.176 10.5-2-8.64-31.606 24-29.5 4.05 1.148 7.5 3.5c3.9-8.071 7.57-7.738 11 1a330 330 0 0 0 18.5 41.5c-2.12 5.159-4.95 5.659-8.5 1.5a370 370 0 0 1-12-23c-3.3 8.969-9.13 15.803-17.5 20.5q-13.005 2.011-19.5-9.5-5.43 5.736-13.5 6-21.6-1.869-31.5-21c-3.4-16.196 2.76-26.862 18.5-32M1920.5 411.5q15.36-1.065 30 3.5c3.19 1.695 5.53 4.195 7 7.5-1.09 2.096-2.76 3.429-5 4-8.1-4.596-16.77-6.263-26-5q13.515 17.751 33 28.5c8.36 6.209 7.7 11.209-2 15-5.52 2.058-11.19 2.724-17 2q-6-4 0-8l12-2.5q-17.565-11.192-31.5-27a46 46 0 0 1-5.5-10.5c.33-3.48 2-5.98 5-7.5M3533.5 416.5q7.8-.729 15 2c2.78 2.842 2.45 5.342-1 7.5-10.31-1.715-19.14 1.118-26.5 8.5-3.63 8.424-5.46 17.257-5.5 26.5a284 284 0 0 1 2.5 32.5c-1.31 2.806-3.47 3.64-6.5 2.5q-8.73-10.707-10.5-24.5c-.83-10.045-.5-20.045 1-30 1.34-3.088 3.5-4.088 6.5-3 5.26-10.932 13.59-18.265 25-22M493.5 417.5q15.884 1.601 9.5 16a34.7 34.7 0 0 1-6.5 7.5 387 387 0 0 1-23 13q6.04 9.03 17 10.5 5.267-2.681 11-2.5 5.964 3.926 0 8a82 82 0 0 1-12 3.5q-15.617-2.87-24.5-16-5.237 4.803-11.5 2.5-1.614-2.589-.5-5.5a41 41 0 0 1 9-5q2.255-15.75 15.5-24.5a171 171 0 0 1 16-7.5M541.5 418.5q3.734-.303 7 1.5a57.2 57.2 0 0 1 8.5 9.5 533 533 0 0 1 14 34q4.911 9.148 12.5 16-2.835 6.428-9 2.5-10.107-10.123-15.5-23.5-3.819-16.629-14-30a185 185 0 0 0-11 42q-2.915 5.98-8 2a17.9 17.9 0 0 1-1.5-7.5 292 292 0 0 1 3.5-34.5q1.888-5.585 7-3a33.7 33.7 0 0 1 6.5-9M428.5 422.5q6.531 1.284 7.5 8a705 705 0 0 0 2.5 27.5q-3.677 9.502-9.5 1.5a440 440 0 0 0-3.5-32.5q.686-2.91 3-4.5M2697.5 425.5c2.65.238 4.48 1.572 5.5 4 .33 5 .67 10 1 15 .41 8.737 4.57 11.237 12.5 7.5a96 96 0 0 0 14-18c5.28-.182 7.61 2.484 7 8a437 437 0 0 0-.5 49.5q5.16-2.14 10.5-4 6.945 2.61 3 8.5a56 56 0 0 0-13.5 5.5 196.6 196.6 0 0 1-1 54q-7.74 25.988-31.5 12.5-15.255-16.302-7.5-37.5 4.215-10.702 12-19a553 553 0 0 0 18.5-17 292 292 0 0 1-.5-41c-9.16 11.021-18.83 11.688-29 2q-5.82-13.083-3-27c1.04-.873 1.88-1.873 2.5-3" style="opacity:1"/><path fill="#fefffe" d="M491.5 427.5q7.001.591 1 5.5a241 241 0 0 1-18 10.5q-.697-4.235 3-7.5a157 157 0 0 1 14-8.5" style="opacity:1"/><path d="M2680.5 428.5q6.06-1.26 9 4l-1.5 3c-8.86 2.671-16.03 7.671-21.5 15a304 304 0 0 0 14.5 15c1 5.741-1.17 7.575-6.5 5.5a264 264 0 0 0-14-13.5 160 160 0 0 0-13 17q-4.26 4.175-7.5-1-1.005-1.5 0-3a385 385 0 0 1 13.5-19 178 178 0 0 0-17.5-14c-.5-4.833 1.67-7 6.5-6.5 5.67 4.5 11.33 9 17 13.5q8.82-10.334 21-16" style="opacity:1"/><path fill="#fefffe" d="M2023.5 430.5c7.3-.514 13.96 1.32 20 5.5q-.12 14.253-12 22c-6.68.336-10.85-2.83-12.5-9.5q-4.56-11.09 4.5-18M2151.5 431.5a4.94 4.94 0 0 1 3 .5 68.6 68.6 0 0 1-17.5 16.5q-1.005-1.5 0-3c3.68-5.913 8.52-10.579 14.5-14" style="opacity:1"/><path d="M2551.5 431.5c3.68-.165 7.35.001 11 .5q7.995 4.5 0 9c-4.51-.062-9.18.272-14 1q-9.48.466-7.5 9.5a352 352 0 0 1 9.5 24q-.405 4.159-4.5 5a21.4 21.4 0 0 1-6-5c-6.13-9.862-9.46-20.529-10-32 5.69-6.757 12.85-10.757 21.5-12M3355.5 431.5c13.38.515 25.71 4.348 37 11.5a2240 2240 0 0 1 25.5 44.5 748 748 0 0 1 12-35q3.24-5.175 7.5-1c.98 1.598 1.15 3.265.5 5a1117 1117 0 0 1-15.5 42c-3.12 3.913-6.29 3.913-9.5 0-8.15-17.649-17.82-34.316-29-50-13.41-8.27-27.08-8.936-41-2-1.04 6.836-1.37 13.836-1 21 4.88 10.853 7.22 22.187 7 34-1.06 1.399-2.39 2.399-4 3-3.95-2.504-6.78-1.337-8.5 3.5-4.97 4.567-10.8 7.4-17.5 8.5a60.1 60.1 0 0 1-16.5-5.5q-14.85-10.102-24-25.5-7.035 4.213-7.5-4a41.4 41.4 0 0 1 4.5-6c-1.96-8.761-.8-17.095 3.5-25 7.26-7.932 14.59-7.932 22 0q4.995 8.5 0 17c-4.55 4.89-9.39 9.39-14.5 13.5q9.57 20.583 31.5 25.5c10.86-.862 16.7-6.695 17.5-17.5a398 398 0 0 1-5-33.5q-.435-11.392 9-17.5c5.24-2.685 10.58-4.852 16-6.5" style="opacity:1"/><path fill="#fefffe" d="M605.5 433.5q3.928-.402 7.5 1a171 171 0 0 1 3 20 148.7 148.7 0 0 0-22.5-18.5q6.298-.792 12-2.5" style="opacity:1"/><path d="M2613.5 435.5c10.21 1.375 15.87 7.209 17 17.5-1.4 11.401-7.73 18.401-19 21q-14.49 2.638-27-5c-5.08-4.604-5.92-9.771-2.5-15.5 8.24-8.642 18.41-12.809 30.5-12.5-.83-1.909-.5-3.742 1-5.5M1263.5 438.5c2.52.255 4.85 1.089 7 2.5a405 405 0 0 1 24.5 23.5c3.67-6 7.33-12 11-18a39 39 0 0 1 5.5-5q5.31 1.64 4.5 7a382 382 0 0 0-14.5 22 325 325 0 0 1 15.5 15c.34 4.652-1.82 6.486-6.5 5.5a227 227 0 0 0-13-12.5c-3.07 4.464-5.9 9.131-8.5 14-3.55 4.159-6.38 3.659-8.5-1.5a129 129 0 0 1 10-19 1247 1247 0 0 0-30-29.5q1.53-2.028 3-4M1330.5 442.5c2.22-.322 4.06.345 5.5 2q.615 13.855 10.5 23.5 4.305 2.185 9 1a57.4 57.4 0 0 1 10.5-7.5q8.25 4.478 9 14a100.4 100.4 0 0 1 2.5 18c23.05-5.765 46.38-7.598 70-5.5 5.33 3.573 4.99 6.739-1 9.5-22.89-1.828-45.56-.162-68 5q1.185 18.462-4.5 36c-5.79 11.129-14.63 18.629-26.5 22.5q-25.5 1.533-30-24 .705-10.138 7.5-17.5c11.71-12.11 25.88-19.943 42.5-23.5q1.11-11.461-3-22.5c-10.15 8.509-19.32 7.509-27.5-3-5.47-6.112-8.64-13.279-9.5-21.5q.51-3.767 3-6.5M3467.5 444.5q8.82 2.618 9 12c-.98 9.957-5.15 18.29-12.5 25q.21 7.244 7.5 9.5 9.075 2.495 18-1 5.265-3.273 10.5-6.5c4.7 1.761 5.53 4.594 2.5 8.5-13.03 11.247-26.7 12.247-41 3a25.6 25.6 0 0 1-5.5-6.5 209 209 0 0 1-13.5 11c-3.98-1.762-4.81-4.429-2.5-8 4.07-3.95 8.24-7.783 12.5-11.5q-3.99-22.83 15-35.5M1176.5 446.5q20.535-.444 39 8.5c4.2 3.905 3.53 6.738-2 8.5q-18.585-9.014-39-6 2.4 9.83 3 20c-.53 8.077-4.19 10.244-11 6.5-7.41-6.563-10.24-14.73-8.5-24.5 4.14-7.323 10.31-11.656 18.5-13M1251.5 446.5c9.59 3.433 14.92 10.267 16 20.5q-1.245 14-12 23c-7.86 3.503-15.2 2.503-22-3q-9.765-7.761-12-20 5.925-21.965 27-13.5c.25-1.082.42-2.415.5-4 1.04-.873 1.88-1.873 2.5-3" style="opacity:1"/><path fill="#fefffe" d="M2603.5 450.5c4.44-.29 8.77.21 13 1.5q6.21 10.696-6 13c-7.34 1.325-14.17.159-20.5-3.5q-1.005-2 0-4 6.36-4.555 13.5-7M3287.5 453.5c6.75.492 8.58 3.825 5.5 10a39.9 39.9 0 0 1-8 7 11.4 11.4 0 0 0-1.5-3.5c.56-4.759 1.89-9.259 4-13.5M3465.5 456.5q1.68 8.754-4.5 16-.06-8.596 4.5-16M1254.5 458.5c4.05 6.986 3.89 13.986-.5 21q-8.235 5.986-16.5-.5c-4.81-4.101-6.64-9.268-5.5-15.5 1.78-2.264 4.11-3.597 7-4 4.28.97 7.94 2.97 11 6q5.88-1.062 4.5-7" style="opacity:1"/><path d="M1633.5 501.5c3.49-.349 5.82 1.151 7 4.5-1.54 3.55-3.87 6.55-7 9a290.5 290.5 0 0 1-42 27c11.29 3.859 22.96 6.192 35 7 42.19.766 84.35.266 126.5-1.5 15.84.139 31.67.473 47.5 1a3041 3041 0 0 0 110-8.5c42.63-2.554 85.29-4.387 128-5.5 52.84 1.635 105.67 3.301 158.5 5 13.2.053 26.37-.613 39.5-2 4.02-.806 6.68.694 8 4.5-1.21 3.207-3.54 4.874-7 5a943 943 0 0 1-24 2c-58.33-1.187-116.66-2.687-175-4.5-44.71.946-89.38 2.78-134 5.5a3543 3543 0 0 1-103.5 8.5 1439 1439 0 0 0-48.5-1 2012 2012 0 0 1-115 1.5 142 142 0 0 1-35.5-4.5l-1.5.5a718 718 0 0 0 55 29q6.24 5.319-1.5 8.5a792 792 0 0 1-62.5-32.5 47.3 47.3 0 0 1-12.5-10.5c-.71-2.471-.37-4.805 1-7a45.4 45.4 0 0 0 7.5-8.5 275 275 0 0 0 41-26 25.4 25.4 0 0 0 5-6.5" style="opacity:1"/><path fill="#fefffe" d="M1365.5 505.5h4q-.825 9.984-1.5 20-3.27 22.523-25.5 27c-7.58-.085-12.41-3.751-14.5-11-1.4-9.367 1.76-16.867 9.5-22.5 8.75-5.878 18.09-10.378 28-13.5M2726.5 506.5c2.68 16.883 2.52 33.883-.5 51a30 30 0 0 1-2.5 4.5c-13.07 2.438-19.74-3.062-20-16.5.36-8.922 3.2-16.922 8.5-24 4.36-5.53 9.2-10.53 14.5-15" style="opacity:1"/><path d="M2951.5 512.5c4.3.463 6.14 2.796 5.5 7-10.53 7.528-19.36 16.694-26.5 27.5 2.02 4.701 3.18 4.534 3.5-.5a6.97 6.97 0 0 1 3.5-2.5q41.985-6.262 84 0 6 4 0 8a887 887 0 0 1-53-2.5c-10.4.986-20.74 2.486-31 4.5a148.5 148.5 0 0 0 21.5 14.5c2.07 5.329.24 7.495-5.5 6.5a117 117 0 0 1-29.5-21.5c-2.75-3.833-3.09-7.833-1-12q12.54-16.294 28.5-29M846.5 522.5q8.563-.95 6 7a152 152 0 0 0-24 15.5 598 598 0 0 0 74-4 62.4 62.4 0 0 0 13-3.5q5.212.965 3.5 6a18.1 18.1 0 0 1-5.5 4.5 261 261 0 0 1-14 3 1810 1810 0 0 1-77 5q18.237 16.874 41 27 3.43 3.072.5 6.5-3.096 1.637-6.5.5-25.164-11.67-44.5-31.5-3.487-4.863-1-10 15.927-15.053 34.5-26" style="opacity:1"/></svg>